<?xml version="1.0" encoding="UTF-8"?><svg xmlns="http://www.w3.org/2000/svg" width="23" height="30"><title></title><desc></desc><g fill="none"><g fill-rule="nonzero"><g><path fill="#AAFF7F" d="M8.42 13.1L7 14.5l3.73 3.76 6.7-6.75L16 10.1l-5.27 5.32z"/><path fill="#7FE6FF" d="M0 3.9h1c.08 0 .25 0 .5-.02.4-.02.88-.05 1.38-.1 1.43-.18 2.86-.48 4.18-.94C8.58 2.3 9.86 1.6 10.8.68l.7-.66.7.66c.95.9 2.22 1.62 3.74 2.16 1.32.46 2.75.76 4.18.93.5.06.97.1 1.38.1.25.03.42.03.5.03h1v11.8c0 3.6-1.84 6.96-4.92 9.02L11.5 29.1l-.55-.37-6.03-4C1.84 22.65 0 19.28 0 15.68V3.9zm2 11.8c0 2.92 1.5 5.67 4.03 7.35l5.47 3.65 5.47-3.65C19.5 21.37 21 18.62 21 15.7V5.85c-.35-.03-.72-.06-1.1-.1-1.58-.2-3.15-.52-4.62-1.04-1.44-.5-2.72-1.16-3.78-2-1.06.84-2.34 1.5-3.78 2-1.47.52-3.04.85-4.6 1.03-.4.05-.77.08-1.12.1v9.84z"/></g></g></g></svg>