<?xml version="1.0" encoding="UTF-8"?><svg width="24" height="24" viewBox="0 0 24 24" fill="none" xmlns="http://www.w3.org/2000/svg"><path fill-rule="evenodd" clip-rule="evenodd" d="M10.4822 0C10.0312 0 9.66772 0 9.37158 0.0202026C9.06738 0.0409546 8.7981 0.0847473 8.54321 0.190308C7.93066 0.444031 7.44409 0.930725 7.19019 1.5433C7.08472 1.79813 7.04102 2.06729 7.02026 2.37164C7.00781 2.55392 7.00293 2.76184 7.00122 3H3.67871C3.13672 3 2.69971 3 2.3457 3.0289C1.9812 3.05869 1.66113 3.12158 1.36499 3.27249C0.894531 3.51218 0.512207 3.89462 0.272461 4.36502C0.121582 4.66116 0.0585938 4.98126 0.0288086 5.3457C0 5.69962 0 6.13672 0 6.67859V9.32141C0 9.86328 0 10.3004 0.0288086 10.6543C0.0585938 11.0187 0.121582 11.3388 0.272461 11.635C0.446533 11.9767 0.696045 12.2721 1 12.5V17.5C1 18.8807 2.11938 20 3.5 20H18.5C19.8806 20 21 18.8807 21 17.5V12.5C21.304 12.2721 21.5535 11.9767 21.7275 11.635C21.8784 11.3388 21.9414 11.0187 21.9712 10.6543C22 10.3004 22 9.86331 22 9.32141V6.67859C22 6.13669 22 5.69962 21.9712 5.3457C21.9414 4.98126 21.8784 4.66116 21.7275 4.36502C21.4878 3.89462 21.1055 3.51218 20.635 3.27249C20.3389 3.12158 20.0188 3.05869 19.6543 3.0289C19.3003 3 18.8633 3 18.3213 3H14.9988C14.9971 2.76184 14.9922 2.55392 14.9797 2.37164C14.959 2.06729 14.9153 1.79813 14.8098 1.5433C14.5559 0.930725 14.0693 0.444031 13.4568 0.190308C13.2019 0.0847473 12.9326 0.0409546 12.6284 0.0202026C12.3323 0 11.9688 0 11.5178 0H10.4822ZM13.9988 3H8.00122C8.00293 2.77676 8.00732 2.59521 8.01782 2.43973C8.03516 2.18628 8.06738 2.03867 8.11426 1.92596C8.26636 1.55844 8.55835 1.26642 8.92603 1.11417C9.03857 1.0675 9.18628 1.03516 9.4397 1.01788C9.69775 1.00027 10.0271 1 10.5 1H11.5C11.9729 1 12.3022 1.00027 12.5603 1.01788C12.8137 1.03516 12.9614 1.0675 13.074 1.11417C13.4417 1.26642 13.7336 1.55844 13.8857 1.92596C13.9326 2.03867 13.9648 2.18628 13.9822 2.43973C13.9927 2.59521 13.9971 2.77676 13.9988 3ZM3.69995 4H18.3C18.8684 4 19.2644 4.0004 19.573 4.02557C19.8755 4.05032 20.0493 4.09641 20.1809 4.16348C20.4631 4.30731 20.6926 4.53677 20.8364 4.819C20.9036 4.95068 20.9497 5.12454 20.9744 5.42712C20.9995 5.73553 21 6.13168 21 6.70001V9.29999C21 9.86832 20.9995 10.2645 20.9744 10.5729C20.9497 10.8755 20.9036 11.0493 20.8364 11.181C20.6926 11.4632 20.4631 11.6927 20.1809 11.8365C20.0493 11.9036 19.8755 11.9497 19.573 11.9744C19.2644 11.9996 18.8684 12 18.3 12H12C12 12.039 12 12.0806 12 12.125V12.875C12 12.9194 12 12.961 12 13H18.3215C18.8633 13 19.3003 13 19.6543 12.9711C19.7742 12.9613 19.8892 12.9479 20 12.929V17.5C20 18.3284 19.3284 19 18.5 19H3.5C2.67163 19 2 18.3284 2 17.5V12.929C2.11084 12.9479 2.22583 12.9613 2.3457 12.9711C2.69971 13 3.13672 13 3.67847 13H10C10 12.961 10 12.9194 10 12.875V12.125C10 12.0806 10 12.039 10 12H3.69995C3.13159 12 2.7356 11.9996 2.427 11.9744C2.12451 11.9497 1.95068 11.9036 1.81909 11.8365C1.53687 11.6927 1.30737 11.4632 1.16357 11.181C1.09644 11.0493 1.05029 10.8755 1.02563 10.5729C1.00049 10.2645 1 9.86832 1 9.29999V6.70001C1 6.13168 1.00049 5.73553 1.02563 5.42712C1.05029 5.12454 1.09644 4.95068 1.16357 4.819C1.30737 4.53677 1.53687 4.30731 1.81909 4.16348C1.95068 4.09641 2.12451 4.05032 2.427 4.02557C2.7356 4.0004 3.13159 4 3.69995 4Z" transform="translate(1 2)" fill="#169BFF"/><path fill-rule="evenodd" clip-rule="evenodd" d="M10.984 10H11.016C11.2353 9.99999 11.4246 9.99999 11.5812 10.0107C11.7461 10.0219 11.9111 10.0467 12.074 10.1142C12.4416 10.2664 12.7336 10.5584 12.8858 10.926C12.9533 11.0889 12.9781 11.2539 12.9893 11.4188C13 11.5754 13 11.7647 13 11.984V13.016C13 13.2353 13 13.4246 12.9893 13.5812C12.9781 13.7461 12.9533 13.9111 12.8858 14.074C12.7336 14.4416 12.4416 14.7336 12.074 14.8858C11.9111 14.9533 11.7461 14.9781 11.5812 14.9893C11.4246 15 11.2353 15 11.016 15H10.984C10.7647 15 10.5754 15 10.4188 14.9893C10.2539 14.9781 10.0889 14.9533 9.92598 14.8858C9.55843 14.7336 9.26642 14.4416 9.11418 14.074C9.04668 13.9111 9.02193 13.7461 9.01068 13.5812C8.99999 13.4246 8.99999 13.2353 9 13.016V11.984C8.99999 11.7647 8.99999 11.5754 9.01068 11.4188C9.02193 11.2539 9.04668 11.0889 9.11418 10.926C9.26642 10.5584 9.55843 10.2664 9.92598 10.1142C10.0889 10.0467 10.2539 10.0219 10.4188 10.0107C10.5754 9.99999 10.7647 9.99999 10.984 10ZM10.4869 11.0084C10.3729 11.0161 10.3295 11.0294 10.3087 11.0381C10.1861 11.0888 10.0888 11.1861 10.0381 11.3087C10.0294 11.3295 10.0161 11.3729 10.0084 11.4869C10.0003 11.6054 10 11.7602 10 12V13C10 13.2398 10.0003 13.3946 10.0084 13.5131C10.0161 13.6271 10.0294 13.6705 10.0381 13.6913C10.0888 13.8139 10.1861 13.9112 10.3087 13.9619C10.3295 13.9706 10.3729 13.9839 10.4869 13.9916C10.6054 13.9997 10.7602 14 11 14C11.2398 14 11.3946 13.9997 11.5131 13.9916C11.6271 13.9839 11.6705 13.9706 11.6913 13.9619C11.8139 13.9112 11.9112 13.8139 11.9619 13.6913C11.9706 13.6705 11.9839 13.6271 11.9916 13.5131C11.9997 13.3946 12 13.2398 12 13V12C12 11.7602 11.9997 11.6054 11.9916 11.4869C11.9839 11.3729 11.9706 11.3295 11.9619 11.3087C11.9112 11.1861 11.8139 11.0888 11.6913 11.0381C11.6705 11.0294 11.6271 11.0161 11.5131 11.0084C11.3946 11.0003 11.2398 11 11 11C10.7602 11 10.6054 11.0003 10.4869 11.0084Z" transform="translate(1 2)" fill="#169BFF"/></svg>