<?xml version="1.0" encoding="UTF-8"?><svg xmlns="http://www.w3.org/2000/svg" width="23" height="30"><title></title><desc></desc><defs><linearGradient id="a" x1="46.696%" x2="0%" y1="0%" y2="100%"><stop stop-color="#4CE8FF" stop-opacity=".3" offset="0%"/><stop stop-color="#4CE8FF" offset="100%"/></linearGradient></defs><g fill="none"><g><g><path id="Fill-1" fill="url(#a)" d="M0 3.5v10.8c0 3.26 1.67 6.3 4.48 8.18l6.02 4.02 6.02-4.02c2.8-1.87 4.48-4.92 4.48-8.2V3.5s-6.82 0-10.5-3.5C6.83 3.5 0 3.5 0 3.5z" opacity=".4" transform="translate(1 1.4)"/><path stroke="#AAFF7F" stroke-width="2" d="M16.7 10.8l-5.97 6.04L7.7 13.8"/><path stroke="#4CE8FF" stroke-width="2" d="M1 4.9v10.8c0 3.26 1.67 6.3 4.48 8.2l6.02 4 6.02-4.02C20.32 22 22 18.96 22 15.68V4.9s-6.82 0-10.5-3.5C7.83 4.9 1 4.9 1 4.9z"/></g></g></g></svg>