<svg width="76" height="26" viewBox="0 0 76 26" fill="none" xmlns="http://www.w3.org/2000/svg">
<g clip-path="url(#clip0)">
<path d="M60.9359 20.2691C69.3854 20.2691 74.3489 16.9976 74.3489 16.9976L74.3455 21.8147C74.3455 21.8147 69.5318 25.8283 60.9393 25.8283H60.9359C52.3435 25.8283 47.5298 21.8147 47.5298 21.8147L47.5264 16.9976C47.5264 16.9976 52.4864 20.2691 60.9359 20.2691Z" fill="#FF4646"/>
<path d="M20.7313 0.204102C16.8095 0.204102 13.6299 3.38372 13.6299 7.30548C13.6299 11.2272 16.8095 14.4069 20.7313 14.4069C24.653 14.4069 27.8326 11.2272 27.8326 7.30548C27.8326 3.38372 24.653 0.204102 20.7313 0.204102ZM20.7313 9.95063C19.3083 9.95063 18.1576 8.72848 18.1576 7.30548C18.1576 5.88248 19.3117 4.66034 20.7313 4.66034C22.1543 4.66034 23.3049 5.88248 23.3049 7.30548C23.3049 8.72848 22.1543 9.95063 20.7313 9.95063Z" fill="#000200"/>
<path d="M14.6856 0.541016H9.76293L7.64205 5.13342L5.20797 0.541016H0.333008L5.28968 9.48072L2.98156 14.0731H7.9178L14.6856 0.541016Z" fill="#000200"/>
<path d="M68.8983 0.204102C64.9765 0.204102 61.7969 3.38372 61.7969 7.30548C61.7969 11.2272 64.9765 14.4069 68.8983 14.4069C72.82 14.4069 75.9997 11.2272 75.9997 7.30548C75.9997 3.38372 72.82 0.204102 68.8983 0.204102ZM68.8983 9.95063C67.4753 9.95063 66.3246 8.72848 66.3246 7.30548C66.3246 5.88248 67.4787 4.66034 68.8983 4.66034C70.3179 4.66034 71.4719 5.88248 71.4719 7.30548C71.4753 8.72848 70.3213 9.95063 68.8983 9.95063Z" fill="#000200"/>
<path d="M37.5557 0.564941V8.14633C37.5557 9.14379 36.7455 9.95401 35.748 9.95401C34.7505 9.95401 33.9403 9.14379 33.9403 8.14633V0.564941H29.4092V8.61272C29.4092 12.1464 32.0713 14.4068 35.571 14.4068H35.9182C39.4178 14.4068 42.08 12.1464 42.08 8.61272C42.08 6.60077 42.08 0.564941 42.08 0.564941H37.5557Z" fill="#000200"/>
<path d="M53.2289 0.564941C49.6204 0.564941 47.4961 0.564941 47.4961 0.564941V14.0732C47.4961 14.0732 49.7429 14.0732 53.297 14.0732C57.5252 14.0732 60.4699 11.0502 60.4699 7.31908V7.14546C60.4733 3.41434 57.3992 0.564941 53.2289 0.564941ZM56.0375 7.31908C56.0375 8.69102 55.0741 9.77018 53.4502 9.81784C52.5991 9.84508 51.8332 9.81784 51.8332 9.81784V4.82032C51.8332 4.82032 52.5174 4.79309 53.4502 4.82032C55.1081 4.86798 56.0375 5.94715 56.0375 7.31908Z" fill="#000200"/>
</g>
<defs>
<clipPath id="clip0">
<rect width="76" height="25.8611" fill="white"/>
</clipPath>
</defs>
</svg>
