<svg width="91" height="88" viewBox="0 0 91 88" fill="none" xmlns="http://www.w3.org/2000/svg">
<g clip-path="url(#clip0)">
<path d="M89.9077 88.5867C89.9077 88.5867 90.2112 63.7867 79.4058 54.6466C75.46 51.2953 70.1787 48.5533 63.0762 47.3346C50.9353 46.055 46.0789 46.8471 46.0789 46.8471C46.0789 46.8471 25.9856 52.2093 23.0718 67.3818C21.797 74.2063 22.8897 86.2712 27.139 94.5581C33.2095 106.44 44.4399 103.333 49.1748 100.834C51.2388 99.7375 53.4242 98.1532 56.0345 96.1424C78.3131 93.9488 89.9077 88.5867 89.9077 88.5867Z" fill="#537CC7"/>
<path d="M42.0116 23.5096C42.0116 23.5096 38.6121 37.1588 45.3503 40.9366C52.0885 44.7145 51.5422 31.0654 51.5422 31.0654L42.0116 23.5096Z" fill="#353338"/>
<path d="M40.2511 49.1018C40.2511 49.1018 46.5644 74.9377 47.475 82.92C56.3378 73.6581 60.6479 65.1883 60.6479 65.1883L64.4116 66.1023L67.9931 62.2026L65.6257 47.7613C65.6257 47.7613 58.4625 45.324 53.1205 45.4458C47.7785 45.5677 40.2511 49.1018 40.2511 49.1018Z" fill="#F98E70"/>
<path d="M43.4683 21.5598C43.529 21.9254 44.8038 43.0693 58.7052 41.0585C72.6066 39.0477 69.6321 25.2767 69.2072 19.7927C68.7822 14.3087 63.5009 5.47333 55.8521 7.60601C48.2033 9.73868 42.8006 14.1259 43.4683 21.5598Z" fill="#FBBB9D"/>
<path d="M46.8072 34.1121C46.8072 34.1121 46.5643 45.5676 46.0787 46.8472C45.5931 48.1877 48.8104 56.8403 55.5486 56.9622C62.2869 57.084 63.076 47.2737 63.076 47.2737L64.0473 35.5745L46.8072 34.1121Z" fill="#FBBB9D"/>
<path d="M63.7437 39.2913C63.7437 39.2913 52.9383 43.8613 46.8071 35.2087L46.625 43.0082C46.625 43.0082 58.0982 49.2235 63.7437 39.2913Z" fill="#EFA689"/>
<path d="M60.8299 13.8211C60.8299 13.8211 55.67 19.3661 47.5355 21.8034C47.5355 21.8034 50.1458 30.1513 46.5643 34.3558C46.5643 34.3558 41.7079 32.4668 42.0721 20.6457C42.4363 8.70272 55.9735 6.63098 55.9735 6.63098C55.9735 6.63098 65.4434 6.81378 68.7215 12.4197C71.9995 18.0256 69.6928 24.058 69.6928 24.058C69.6928 24.058 67.7502 15.2835 60.8299 13.8211Z" fill="#353338"/>
<path d="M67.629 12.9681L64.6545 3.40152C64.1081 1.63444 62.3477 0.41577 60.5266 0.598571L54.2133 1.02511C53.242 1.08604 52.3314 1.45164 51.5423 2.00004L48.9927 3.76712C49.2962 5.41232 50.6317 14.004 51.1173 17.1116L67.629 12.9681Z" fill="#E8E8E8"/>
<path d="M41.3437 11.7494L42.1328 19.3052L51.1778 17.0506C50.6922 13.943 49.3567 5.35138 49.0532 3.70618L43.2255 7.66686C41.89 8.58086 41.1616 10.1651 41.3437 11.7494Z" fill="#D8D8D8"/>
<path d="M42.1328 19.3051L69.8749 14.3695L73.6386 11.4446C74.9741 10.7134 74.7312 8.6417 73.2136 8.2761L68.4787 7.1793C64.4721 6.26529 60.2228 7.05743 56.8234 9.37291L42.1328 19.3051Z" fill="#B2ACAB"/>
<path d="M52.6349 22.0473C52.3921 22.0473 52.1493 21.9863 51.9672 21.8645C51.7851 21.7426 51.6637 21.377 51.7851 21.1942C51.8458 21.0723 52.0279 21.0114 52.21 20.9505C53.7883 20.5239 55.4274 20.5239 57.0664 20.463C57.4306 20.463 57.7948 20.463 58.1591 20.6458C58.4019 20.7677 58.584 21.0723 58.5233 21.377C58.4626 21.7426 58.0376 21.8645 57.7341 21.8645C56.0344 22.1082 54.3347 22.1691 52.6349 22.0473Z" fill="#353338"/>
<path d="M63.5618 20.3412C64.7759 20.2803 66.0507 20.4021 67.2648 20.5849C67.5683 20.6459 67.9932 20.7677 67.9932 21.0724C67.9932 21.3771 67.629 21.5599 67.3862 21.6208C65.9293 21.9255 64.4724 21.9255 63.0155 21.7427C62.7119 21.6817 62.4084 21.6208 62.287 21.3771C62.1656 21.1333 62.287 20.7677 62.5298 20.5849C62.7726 20.4021 63.0762 20.4021 63.3797 20.3412C63.6832 20.2803 63.2583 20.4021 63.5618 20.3412Z" fill="#353338"/>
<path d="M61.6799 26.5561C61.3157 26.0077 61.1335 25.2765 61.1335 24.6063C61.1335 24.3625 61.255 24.3625 61.3157 24.6063C61.4371 24.9109 61.5585 25.2156 61.7406 25.4593C62.1048 25.9468 62.5297 26.3124 63.0154 26.6171C63.3796 26.8608 63.8045 27.1045 63.9866 27.4701C64.3509 28.0795 64.1688 28.9325 63.6224 29.42C63.1975 29.8465 62.5904 30.0293 61.9834 30.0903C61.862 30.0903 61.8013 29.9684 61.9227 29.9075C62.2869 29.5419 62.6512 29.1153 62.7119 28.5669C62.7119 28.2013 62.5297 27.7748 62.3476 27.4701C62.1655 27.2264 61.862 26.9217 61.6799 26.5561Z" fill="#EFA689"/>
<path d="M59.6765 35.2088C58.2196 35.2088 56.6413 34.7213 55.3058 33.0152C55.1844 32.8324 55.1844 32.5277 55.3665 32.4059C55.5486 32.284 55.8522 32.284 55.9736 32.4668C57.734 34.6604 59.8587 34.4776 61.4977 34.112C61.7405 34.0511 61.9833 34.1729 62.044 34.4167C62.1047 34.6604 61.9833 34.9041 61.7405 34.9651C61.0728 35.0869 60.405 35.2088 59.6765 35.2088Z" fill="#EFA689"/>
<path d="M42.133 19.3053C42.133 19.3053 36.5482 26.2517 41.5259 34.5387C46.5037 42.8256 45.1682 21.377 45.1682 21.377L42.133 19.3053Z" fill="#353338"/>
<path d="M43.59 26.1907C43.59 26.1907 42.4973 24.4236 41.2832 25.4595C39.887 26.6782 42.0723 30.2123 43.2864 30.2123C43.7721 28.5671 43.59 26.1907 43.59 26.1907Z" fill="#FBBB9D"/>
<path d="M86.7509 55.3168C86.7509 55.3168 90.5753 54.3418 90.3932 52.5748C90.2111 50.8077 86.7509 50.8077 86.7509 50.8077C86.7509 50.8077 89.7861 49.7109 89.604 48.1266C89.3612 45.3846 77.8273 47.1517 77.8273 47.1517C77.8273 47.1517 78.7986 42.0332 79.1021 39.9615C79.7092 36.0618 78.8593 34.4775 78.0701 33.9291V33.99C78.0701 33.99 77.8273 38.3772 75.6419 38.2554C75.5812 38.2554 75.5812 38.2554 75.5205 38.2554C75.4598 38.4382 75.3991 38.6819 75.3384 38.8647C74.7921 40.5708 71.939 46.3595 71.3319 47.4563C70.6642 48.5531 67.811 55.987 66.2934 59.2165C65.0186 61.8976 62.2262 67.3816 62.2262 67.3816C62.2262 67.3816 64.3509 69.2096 66.7791 70.4283C69.0251 71.5251 72.3032 71.586 72.3032 71.586L76.1276 64.5177C76.1276 64.5177 87.6008 63.2381 88.0257 61.1055C88.3292 59.6431 85.5975 59.3993 85.5975 59.3993C85.5975 59.3993 90.029 59.1556 90.029 56.901C89.9683 55.073 86.7509 55.3168 86.7509 55.3168Z" fill="#FBBB9D"/>
<path d="M78.1307 33.99C77.7057 33.6244 77.3415 33.6244 77.2201 33.6854C76.2488 34.5384 76.0667 36.4274 75.5811 38.1945C75.6418 38.1945 75.6418 38.1945 75.7025 38.1945C77.8878 38.3773 78.1307 33.99 78.1307 33.99Z" fill="#FFE1D7"/>
<path d="M35.4554 74.7548C35.4554 74.7548 38.4907 87.4899 40.6761 88.4039C42.9221 86.6368 45.5324 84.9307 47.7785 82.6152C44.3183 82.3105 38.6728 79.0201 35.4554 74.7548Z" fill="#325B96"/>
<path d="M63.2582 65.3709C63.2582 65.3709 61.1335 64.5788 60.6478 65.1881C60.1622 65.7975 62.2262 67.3817 62.2262 67.3817L63.2582 65.3709Z" fill="#325B96"/>
<path d="M73.2138 69.8191C73.2138 69.8191 74.9135 70.855 74.7921 71.4034C74.6707 71.9518 72.3032 71.5862 72.3032 71.5862L73.2138 69.8191Z" fill="#325B96"/>
<path d="M72.6067 77.2531C72.6067 77.2531 75.5812 92.0599 75.8847 92.913C71.6961 94.1926 60.7085 96.0815 56.095 96.1424C56.095 96.1424 67.3253 88.1602 72.6067 77.2531Z" fill="#F98E70"/>
<path d="M30.5737 29.1591C31.3561 28.8374 22.9953 30.7227 17.0461 23H17.0049C11.0235 30.6976 2.6717 28.7781 3.45227 29.1034C0.466034 52.1404 13.1056 49.2055 16.8402 55.7691C16.8402 55.7691 16.9172 56.0638 16.9584 55.9865C16.9996 56.0656 17.0765 55.7709 17.0765 55.7709C20.838 49.2217 33.4651 52.2087 30.5737 29.1591Z" fill="#99CE65"/>
<path d="M9.10244 37.9554C8.24035 38.6399 13.0291 46.5566 15.6139 45.9689C18.1987 45.3796 24.9325 33.8747 23.8916 33.0509C22.8507 32.2271 15.2606 41.6726 15.2606 41.6726C15.2606 41.6726 9.98487 37.2562 9.10244 37.9554Z" fill="#F7F9A7"/>
<ellipse cx="65.4104" cy="25.0632" rx="1.66758" ry="1.67089" fill="white"/>
<mask id="mask0" mask-type="alpha" maskUnits="userSpaceOnUse" x="63" y="23" width="5" height="4">
<ellipse cx="65.4104" cy="25.0632" rx="1.66758" ry="1.67089" fill="white"/>
</mask>
<g mask="url(#mask0)">
<ellipse cx="66.5221" cy="25.0632" rx="1.66757" ry="1.67089" fill="#302735"/>
</g>
<ellipse cx="55.405" cy="25.0632" rx="1.66758" ry="1.67089" fill="white"/>
<mask id="mask1" mask-type="alpha" maskUnits="userSpaceOnUse" x="53" y="23" width="5" height="4">
<ellipse cx="55.405" cy="25.0632" rx="1.66758" ry="1.67089" fill="white"/>
</mask>
<g mask="url(#mask1)">
<ellipse cx="56.5167" cy="25.0632" rx="1.66757" ry="1.67089" fill="#302735"/>
</g>
</g>
<defs>
<clipPath id="clip0">
<rect width="91" height="88" fill="white"/>
</clipPath>
</defs>
</svg>
